<svg id="Capa_1" enable-background="new 0 0 512 512" height="512" viewBox="0 0 512 512" width="512" xmlns="http://www.w3.org/2000/svg"><g><g><path d="m256 0c-141.385 0-256 114.615-256 256 0 137.468 108.357 249.615 244.317 255.724h23.366c135.96-6.109 244.317-118.256 244.317-255.724 0-141.385-114.615-256-256-256z" fill="#37c47a"/></g><g><path d="m490.12 87.76-25.11 20.39-154.2 125.16c-22.56 18.32-36.04 45.55-36.93 74.6l-6.2 203.82c-3.87.18-7.77.27-11.68.27s-7.81-.09-11.68-.27l-6.2-203.82c-.89-29.05-14.37-56.28-36.93-74.6l-154.2-125.16-25.11-20.39c-7.31-5.93-3.11-17.76 6.31-17.76h455.62c9.42 0 13.62 11.83 6.31 17.76z" fill="#e8f8fc"/></g><g><path d="m227.323 178.823c3.538 4.336 9.918 4.991 14.264 1.465l175.29-142.252c4.362-3.54 5.02-9.949 1.469-14.302-3.538-4.336-9.918-4.991-14.264-1.465l-175.291 142.252c-4.362 3.54-5.02 9.949-1.468 14.302z" fill="#ffac00"/></g><g><path d="m106.442 137.083 136.953 111.171c7.345 5.963 17.864 5.963 25.21 0l136.953-111.171c3.656-2.968 1.557-8.882-3.151-8.882h-292.814c-4.708 0-6.807 5.915-3.151 8.882z" fill="#ffcd38"/></g><g><path d="m305.77 128.201h-32.224l-44.755 36.319c-4.362 3.54-5.02 9.949-1.469 14.302 3.538 4.336 9.918 4.991 14.264 1.465z" fill="#ffac00"/></g><g><path d="m184.25 128.202h-74.657c-4.709 0-6.807 5.914-3.151 8.882l136.953 111.171c7.345 5.963 17.864 5.963 25.21 0l77.767-63.127c-57.407.364-114.911-18.604-162.122-56.926z" fill="#ffac00"/></g><g><path d="m256 333.766c-9.643 0-17.459-7.817-17.459-17.459l-.169-.043 5.945 195.46c3.873.174 7.766.276 11.683.276s7.81-.102 11.683-.276l5.942-195.335-.166-.082c0 9.642-7.816 17.459-17.459 17.459z" fill="#cce6ed"/></g><g><circle cx="349.511" cy="79.32" fill="#fe505f" r="40"/></g><g><path d="m339.511 79.321c0-16.785 10.343-31.146 25-37.081-4.633-1.876-9.694-2.919-15-2.919-22.091 0-40 17.908-40 40 0 22.091 17.909 40 40 40 5.306 0 10.367-1.042 15-2.919-14.656-5.935-25-20.296-25-37.081z" fill="#de3648"/></g><g><circle cx="289.979" cy="128.201" fill="#fe505f" r="40"/></g><g><path d="m329.979 128.201h-80c0 22.091 17.909 40 40 40s40-17.908 40-40z" fill="#de3648"/></g><g><path d="m279.979 128.201c0-16.785 10.343-31.146 25-37.081-4.633-1.876-9.694-2.919-15-2.919-22.091 0-40 17.908-40 40 0 22.091 17.909 40 40 40 5.306 0 10.367-1.042 15-2.919-14.657-5.934-25-20.296-25-37.081z" fill="#de3648"/></g></g></svg>